<svg width="117" height="74" viewBox="0 0 117 74" fill="none" xmlns="http://www.w3.org/2000/svg">
<path d="M65.8416 7.69478C68.1635 8.3583 69.7664 9.35314 69.6006 10.6797L66.173 38.8745C66.118 39.2058 66.0075 39.4271 65.7308 39.6485C60.8657 42.6889 55.8902 42.3571 50.6933 39.593C50.3616 39.4271 50.2511 39.2058 50.1961 38.8745L47.3212 10.6797C46.6581 7.14126 56.9959 6.09098 63.7961 7.25214L64.515 2.3875C65.2336 2.16618 65.8971 2.11118 66.6156 2.3875L65.8416 7.69478ZM58.4888 13.776C60.0922 13.776 61.5846 13.6651 62.9112 13.4443L63.6302 8.57918C62.1373 8.30286 60.3685 8.13698 58.4888 8.13698C53.292 8.13698 49.035 9.40858 49.035 10.9561C49.035 12.5035 53.2924 13.776 58.4888 13.776ZM51.1914 17.8663C51.1364 17.9771 51.1364 18.143 51.1364 18.2535C51.1364 18.8061 51.579 19.2483 52.1317 19.2483C52.6289 19.2483 53.0715 18.8615 53.127 18.3639C54.2877 18.6402 55.3934 18.8061 56.5546 18.917C56.3887 19.0274 56.2778 19.1933 56.2778 19.4142C56.2778 19.7459 56.5546 20.0231 56.8863 20.0231C57.2176 20.0231 57.4944 19.7459 57.4944 19.4142C57.4944 19.2483 57.4394 19.0824 57.3285 18.972C58.6556 19.0824 59.9822 19.0274 61.3088 18.917L61.751 15.6003C57.8257 16.0425 53.6796 15.4898 49.6439 13.886L49.9202 17.4795L51.1914 17.8663ZM51.689 27.1547C51.689 26.8225 51.4682 26.6011 51.1914 26.6011C50.9151 26.6011 50.6388 26.8225 50.6388 27.1547C50.6388 27.431 50.9151 27.6523 51.1914 27.6523C51.4677 27.6523 51.689 27.431 51.689 27.1547ZM51.689 21.2393C51.689 20.963 51.4682 20.7417 51.1914 20.7417C50.9705 20.7417 50.7492 20.963 50.7492 21.2393C50.7492 21.4602 50.9701 21.6819 51.1914 21.6819C51.4677 21.6815 51.689 21.4597 51.689 21.2393ZM51.7995 24.2247C51.7995 24.1693 51.689 24.0588 51.6336 24.0588C51.5232 24.0588 51.4127 24.1693 51.4127 24.2247C51.4127 24.3351 51.5232 24.4456 51.6336 24.4456C51.689 24.4456 51.7995 24.3351 51.7995 24.2247ZM51.689 23.6716C51.689 23.7825 51.7445 23.8929 51.9104 23.8929C52.0208 23.8929 52.1312 23.7825 52.1312 23.6716C52.1312 23.5612 52.0208 23.4507 51.9104 23.4507C51.7445 23.4507 51.689 23.5612 51.689 23.6716ZM52.9606 33.954C52.9606 33.5118 52.6839 33.18 52.3526 33.18C52.0208 33.18 51.7445 33.5118 51.7445 33.954C51.7445 34.3966 52.0208 34.7284 52.3526 34.7284C52.6839 34.7284 52.9606 34.3966 52.9606 33.954ZM52.9052 20.963C52.8502 20.963 52.7948 21.018 52.7948 21.0734C52.7948 21.1289 52.8498 21.1839 52.9052 21.1839C52.9606 21.1839 53.0161 21.1289 53.0161 21.0734C53.0161 21.018 52.9606 20.963 52.9052 20.963ZM53.845 26.6011C53.845 26.3248 53.6242 26.0485 53.3474 26.0485C53.0161 26.0485 52.7943 26.3248 52.7943 26.6011C52.7943 26.8775 53.0156 27.0992 53.3474 27.0992C53.6242 27.0992 53.845 26.8775 53.845 26.6011ZM54.2872 23.7825C54.5081 23.7825 54.7294 23.5612 54.7294 23.2849C54.7294 23.0635 54.5086 22.8427 54.2872 22.8427C54.0109 22.8427 53.7896 23.0635 53.7896 23.2849C53.7896 23.5612 54.0109 23.7825 54.2872 23.7825ZM54.8403 36.7189C54.8403 36.4426 54.6744 36.2767 54.3977 36.2767C54.1768 36.2767 54.0109 36.4426 54.0109 36.7189C54.0109 36.9398 54.1764 37.1057 54.3977 37.1057C54.6744 37.1057 54.8403 36.9398 54.8403 36.7189ZM55.4484 26.9333C55.4484 26.6011 55.2275 26.3803 54.9512 26.3803C54.6744 26.3803 54.3981 26.6011 54.3981 26.9333C54.3981 27.2101 54.6744 27.431 54.9512 27.431C55.2271 27.431 55.4484 27.2101 55.4484 26.9333ZM55.1166 28.7021C55.1166 28.4808 55.0062 28.3149 54.7853 28.3149C54.564 28.3149 54.3981 28.4808 54.3981 28.7021C54.3981 28.8685 54.564 29.0343 54.7853 29.0343C55.0062 29.0343 55.1166 28.8685 55.1166 28.7021ZM55.7802 28.1495C55.946 28.1495 56.1115 27.9841 56.1115 27.8182C56.1115 27.5969 55.946 27.431 55.7802 27.431C55.6143 27.431 55.3934 27.5969 55.3934 27.8182C55.393 27.9841 55.6143 28.1495 55.7802 28.1495ZM56.3328 30.8036C56.3328 30.5823 56.1669 30.4164 55.8906 30.4164C55.6697 30.4164 55.5038 30.5823 55.5038 30.8036C55.5038 31.0799 55.6697 31.2458 55.8906 31.2458C56.1669 31.2458 56.3328 31.0799 56.3328 30.8036ZM56.4432 23.0085C56.4432 22.8977 56.3328 22.7872 56.2224 22.7872C56.0565 22.7872 55.946 22.8977 55.946 23.0085C55.946 23.1744 56.0565 23.2849 56.2224 23.2849C56.3328 23.2849 56.4432 23.1744 56.4432 23.0085ZM56.8304 24.6669C56.6091 24.6669 56.3878 24.8878 56.3878 25.1091C56.3878 25.33 56.6091 25.4959 56.8304 25.4959C57.0513 25.4959 57.2172 25.33 57.2172 25.1091C57.2172 24.8873 57.0518 24.6669 56.8304 24.6669ZM57.549 28.5363C57.549 28.2045 57.3281 27.9282 56.9963 27.9282C56.665 27.9282 56.3882 28.2045 56.3882 28.5363C56.3882 28.8685 56.665 29.0898 56.9963 29.0898C57.3281 29.0898 57.549 28.8685 57.549 28.5363ZM58.3234 22.4555C58.3234 22.2346 58.1575 22.0133 57.9362 22.0133C57.7148 22.0133 57.494 22.2346 57.494 22.4555C57.494 22.6768 57.7148 22.8427 57.9362 22.8427C58.1575 22.8427 58.3234 22.6768 58.3234 22.4555ZM57.9362 25.2191C57.7153 25.2191 57.494 25.385 57.494 25.6613C57.494 25.8826 57.7148 26.0485 57.9362 26.0485C58.102 26.0485 58.3234 25.8826 58.3234 25.6613C58.3234 25.385 58.102 25.2191 57.9362 25.2191ZM57.7703 29.532C57.8253 29.532 57.9362 29.4215 57.9362 29.3107C57.9362 29.2557 57.8812 29.1448 57.7703 29.1448C57.6598 29.1448 57.5494 29.2557 57.5494 29.3107C57.549 29.4215 57.6598 29.532 57.7703 29.532ZM58.2125 29.8637C58.2125 29.8083 58.102 29.6979 58.047 29.6979C57.9366 29.6979 57.8257 29.8083 57.8257 29.8637C57.8257 29.9742 57.9362 30.0846 58.047 30.0846C58.102 30.0846 58.2125 29.9742 58.2125 29.8637ZM59.0969 26.7116C59.0969 26.4353 58.876 26.1589 58.5442 26.1589C58.2675 26.1589 57.9912 26.4353 57.9912 26.7116C57.9912 27.0442 58.2675 27.2651 58.5442 27.2651C58.876 27.2651 59.0969 27.0442 59.0969 26.7116ZM58.5442 20.0781C58.7651 20.0781 58.931 19.9123 58.931 19.6905C58.931 19.4696 58.7656 19.3037 58.5442 19.3037C58.3229 19.3037 58.157 19.4696 58.157 19.6905C58.157 19.9123 58.3234 20.0781 58.5442 20.0781ZM59.65 39.7035C59.65 39.5376 59.5395 39.3717 59.3182 39.3717C59.1528 39.3717 58.9869 39.5376 58.9869 39.7035C58.9869 39.9248 59.1528 40.0352 59.3182 40.0352C59.5391 40.0352 59.65 39.9248 59.65 39.7035ZM60.4239 33.18C60.4239 33.0141 60.3135 32.8483 60.0926 32.8483C59.9263 32.8483 59.7608 33.0141 59.7608 33.18C59.7608 33.3459 59.9263 33.5118 60.0926 33.5118C60.3135 33.5118 60.4239 33.3459 60.4239 33.18ZM60.9766 21.1289L61.087 20.4099C60.9766 20.2995 60.8661 20.244 60.7552 20.244C60.4789 20.244 60.258 20.4653 60.258 20.7417C60.258 20.963 60.4789 21.1839 60.7552 21.1839C60.8107 21.1839 60.9216 21.1839 60.9766 21.1289ZM61.4742 26.2694C61.4742 26.1589 61.4188 26.0485 61.3638 25.9376C61.1979 25.9376 60.977 25.8826 60.7557 25.8272C60.6452 25.9376 60.5348 26.1035 60.5348 26.2694C60.5348 26.4907 60.7557 26.7116 61.032 26.7116C61.3083 26.7116 61.4742 26.4907 61.4742 26.2694ZM63.3539 24.8873C63.3539 24.556 63.0776 24.3347 62.8012 24.3347L62.6354 24.3901L62.4695 25.3295C62.5799 25.385 62.6904 25.4404 62.8012 25.4404C63.0776 25.4404 63.3539 25.2191 63.3539 24.8873ZM63.188 20.2995C63.2984 20.3549 63.4089 20.4099 63.5752 20.4099C63.907 20.4099 64.1278 20.189 64.1278 19.8573C64.1278 19.5251 63.907 19.3037 63.5752 19.3037C63.4643 19.3037 63.4093 19.3037 63.2984 19.3592L63.188 20.2995ZM64.3492 28.7021C64.3492 28.4258 64.1283 28.2045 63.8515 28.2045C63.5752 28.2045 63.3539 28.4258 63.3539 28.7021C63.3539 28.9793 63.5752 29.2002 63.8515 29.2002C64.1278 29.2002 64.3492 28.9793 64.3492 28.7021ZM67.0028 14.3282C65.9525 14.7159 64.9572 15.0476 63.907 15.2685L63.4093 18.6402C64.4596 18.4193 65.5653 18.143 66.616 17.8113L67.0028 14.3282ZM65.344 38.5432C65.344 38.3219 65.1781 38.101 65.0122 38.101C64.7914 38.101 64.57 38.3219 64.57 38.5432C64.57 38.7091 64.7909 38.8749 65.0122 38.8749C65.1781 38.8749 65.344 38.7091 65.344 38.5432ZM64.6809 2.60838C64.6809 2.71926 65.0677 2.77426 65.5103 2.77426C66.008 2.77426 66.3947 2.71926 66.3947 2.60838C66.3947 2.49794 66.008 2.3875 65.5103 2.3875C65.0677 2.3875 64.6809 2.49794 64.6809 2.60838ZM66.063 20.6312C66.063 20.2995 65.7866 20.0231 65.4549 20.0231C65.1231 20.0231 64.8464 20.2995 64.8464 20.6312C64.8464 20.963 65.1227 21.2393 65.4549 21.2393C65.7866 21.2393 66.063 20.963 66.063 20.6312ZM65.1231 12.9466C66.8924 12.4485 67.9426 11.73 67.9426 10.9565C67.9426 10.2375 67.1137 9.62946 65.6762 9.13226L65.1231 12.9466Z" fill="#FF5576"/>
<path d="M6.98 59.78L7.06 58.86C7.40667 58.8333 7.64667 58.82 7.78 58.82C7.90667 58.82 8.11333 58.8433 8.4 58.89C8.38667 59.37 8.38 59.9767 8.38 60.71C8.38 61.45 8.38667 61.9933 8.4 62.34C8.16 62.3933 7.92667 62.42 7.7 62.42C7.48 62.42 7.26667 62.4033 7.06 62.37L6.98 61.53C6.12 61.4967 5.45667 61.48 4.99 61.48C4.53 61.48 3.85 61.4967 2.95 61.53C2.98333 63.9633 3.05667 65.78 3.17 66.98L4.49 67.07L4.54 67.65C4.54 67.9033 4.51333 68.15 4.46 68.39C4.04667 68.3767 3.3 68.37 2.22 68.37C1.14 68.37 0.433333 68.3767 0.1 68.39C0.0466667 68.15 0.02 67.9233 0.02 67.71C0.02 67.49 0.0366667 67.27 0.07 67.05L0.96 66.98C1.08667 65.4067 1.15 63.39 1.15 60.93C1.15 58.4633 1.05333 56.2933 0.86 54.42L0.05 54.35C0.0166667 54.1433 0 53.9267 0 53.7C0 53.48 0.0233333 53.25 0.07 53.01C0.47 53.0233 1.89333 53.03 4.34 53.03C6.79333 53.03 8.38 52.96 9.1 52.82L9.22 52.94C9.08667 54.3467 9.01333 55.48 9 56.34C8.84 56.36 8.64 56.37 8.4 56.37C8.16 56.37 7.91333 56.3467 7.66 56.3L7.58 54.66C6.76667 54.6133 5.97333 54.59 5.2 54.59C4.42 54.59 3.72 54.6133 3.1 54.66C3 55.72 2.95 57.4567 2.95 59.87H4.13C5.01 59.87 5.96 59.84 6.98 59.78ZM11.28 67.05L12.12 66.98C12.2667 65.4067 12.34 63.97 12.34 62.67C12.34 61.3633 12.2733 60.0067 12.14 58.6L11.26 58.53C11.2067 58.2567 11.18 57.9967 11.18 57.75C11.18 57.5033 11.19 57.3133 11.21 57.18C12.1367 57.1533 13.1267 57.0833 14.18 56.97L14.3 57.09C14.16 58.03 14.09 59.6133 14.09 61.84C14.09 64.0667 14.16 65.78 14.3 66.98L15.19 67.05C15.2233 67.3033 15.24 67.5233 15.24 67.71C15.24 67.89 15.2167 68.1167 15.17 68.39C14.61 68.3767 13.96 68.37 13.22 68.37C12.4867 68.37 11.8467 68.3767 11.3 68.39C11.2533 68.15 11.23 67.9033 11.23 67.65C11.23 67.39 11.2467 67.19 11.28 67.05ZM14.54 53.66C14.54 54.6467 14.03 55.14 13.01 55.14C12.21 55.14 11.81 54.7333 11.81 53.92C11.81 52.9133 12.32 52.41 13.34 52.41C14.14 52.41 14.54 52.8267 14.54 53.66ZM23.4 66.45L23.47 65.3C23.73 65.2467 23.97 65.22 24.19 65.22C24.4167 65.22 24.6267 65.23 24.82 65.25C24.8467 66.0167 24.9167 67.0733 25.03 68.42L24.91 68.54C23.9033 68.3933 22.62 68.32 21.06 68.32C19.5 68.32 18.0733 68.3667 16.78 68.46C16.68 68.22 16.6233 67.9333 16.61 67.6C17.2967 66.5267 18.3333 65.01 19.72 63.05C21.1 61.09 22.08 59.6867 22.66 58.84C20.8 58.8733 19.3333 58.93 18.26 59.01L18.19 60.26C17.9367 60.3067 17.6967 60.33 17.47 60.33C17.25 60.33 17.0433 60.32 16.85 60.3C16.8167 59.5333 16.7433 58.48 16.63 57.14L16.75 57.02C17.7567 57.16 19.15 57.23 20.93 57.23C22.7033 57.23 24.0233 57.1833 24.89 57.09C24.97 57.25 25.01 57.5533 25.01 58C24.37 59.2133 23.4367 60.7367 22.21 62.57C20.99 64.4033 20.14 65.7533 19.66 66.62C21.1467 66.6 22.3933 66.5433 23.4 66.45ZM33 66.45L33.07 65.3C33.33 65.2467 33.57 65.22 33.79 65.22C34.0167 65.22 34.2267 65.23 34.42 65.25C34.4467 66.0167 34.5167 67.0733 34.63 68.42L34.51 68.54C33.5033 68.3933 32.22 68.32 30.66 68.32C29.1 68.32 27.6733 68.3667 26.38 68.46C26.28 68.22 26.2233 67.9333 26.21 67.6C26.8967 66.5267 27.9333 65.01 29.32 63.05C30.7 61.09 31.68 59.6867 32.26 58.84C30.4 58.8733 28.9333 58.93 27.86 59.01L27.79 60.26C27.5367 60.3067 27.2967 60.33 27.07 60.33C26.85 60.33 26.6433 60.32 26.45 60.3C26.4167 59.5333 26.3433 58.48 26.23 57.14L26.35 57.02C27.3567 57.16 28.75 57.23 30.53 57.23C32.3033 57.23 33.6233 57.1833 34.49 57.09C34.57 57.25 34.61 57.5533 34.61 58C33.97 59.2133 33.0367 60.7367 31.81 62.57C30.59 64.4033 29.74 65.7533 29.26 66.62C30.7467 66.6 31.9933 66.5433 33 66.45ZM42.79 58.58L41.78 58.5C41.7533 58.34 41.74 58.13 41.74 57.87C41.74 57.6033 41.7633 57.3667 41.81 57.16C42.29 57.1733 42.9567 57.18 43.81 57.18C44.67 57.18 45.33 57.1733 45.79 57.16C45.8367 57.3667 45.86 57.59 45.86 57.83C45.86 58.07 45.8467 58.2933 45.82 58.5L45.1 58.58C44.6667 59.7467 44.11 61.3533 43.43 63.4C42.75 65.4467 42.2367 66.95 41.89 67.91C41.55 68.87 41.23 69.6467 40.93 70.24C40.6367 70.8333 40.3133 71.3933 39.96 71.92C39.2867 72.9133 38.49 73.41 37.57 73.41C36.65 73.41 35.8067 73.1533 35.04 72.64C35.1067 71.7133 35.37 71.05 35.83 70.65C36.31 71.3033 36.8933 71.63 37.58 71.63C38.32 71.63 39.1367 70.59 40.03 68.51C39.2167 65.65 37.93 62.34 36.17 58.58L35.38 58.5C35.3467 58.3133 35.33 58.0933 35.33 57.84C35.33 57.5933 35.3533 57.3667 35.4 57.16C35.8667 57.1733 36.56 57.18 37.48 57.18C38.4 57.18 39.1 57.1733 39.58 57.16C39.6267 57.3667 39.65 57.5933 39.65 57.84C39.65 58.0933 39.6333 58.3133 39.6 58.5L38.62 58.58C38.92 60.3533 39.7033 62.7267 40.97 65.7H41.06C41.86 63.1133 42.4367 60.74 42.79 58.58ZM53.14 66.98L54.1 66.9C54.24 65.2733 54.31 63.11 54.31 60.41C54.31 57.7167 54.23 55.7367 54.07 54.47L53.14 54.4C53.0867 54.2067 53.06 53.96 53.06 53.66C53.06 53.3533 53.07 53.1533 53.09 53.06C54.11 53.04 55.02 52.9667 55.82 52.84C56.62 52.7133 57.47 52.65 58.37 52.65C59.9833 52.65 61.21 53.02 62.05 53.76C62.89 54.5067 63.31 55.6333 63.31 57.14C63.31 58.64 62.8 59.7733 61.78 60.54C63.4867 61.2333 64.34 62.46 64.34 64.22C64.34 65.7067 63.8767 66.83 62.95 67.59C62.0233 68.35 60.6567 68.73 58.85 68.73C57.8433 68.73 56.9067 68.6667 56.04 68.54C54.52 68.4267 53.5367 68.3533 53.09 68.32C53.07 68.2267 53.06 68.0333 53.06 67.74C53.06 67.4533 53.0867 67.2 53.14 66.98ZM57.5 59.44C57.8533 59.68 58.37 59.8 59.05 59.8C59.73 59.8 60.2633 59.5733 60.65 59.12C61.03 58.66 61.22 57.97 61.22 57.05C61.22 56.13 60.9667 55.3933 60.46 54.84C59.9467 54.2933 59.2167 54.02 58.27 54.02C57.6767 54.02 57.02 54.1633 56.3 54.45C56.1733 55.7767 56.11 57.7133 56.11 60.26C56.11 62.8 56.1733 64.8867 56.3 66.52C57.2467 66.8867 58.1033 67.07 58.87 67.07C61.13 67.07 62.26 66.12 62.26 64.22C62.26 62.62 61.5133 61.6433 60.02 61.29C59.54 61.37 59.0733 61.41 58.62 61.41C58.1667 61.41 57.6267 61.29 57 61.05C57 60.31 57.1667 59.7733 57.5 59.44ZM67.27 65.27L67.3 62.7C67.3 61.28 67.2333 59.9133 67.1 58.6L66.22 58.53C66.1667 58.27 66.14 58.0067 66.14 57.74C66.14 57.4667 66.15 57.28 66.17 57.18C66.9833 57.1667 67.9733 57.0967 69.14 56.97L69.26 57.09C69.12 58.03 69.05 59.7167 69.05 62.15V63.28C69.05 64.6267 69.1733 65.5833 69.42 66.15C69.6667 66.7167 70.0867 67 70.68 67C71.5133 67 72.4167 66.5133 73.39 65.54C73.4233 65.1667 73.44 64.4533 73.44 63.4V62.7C73.44 61.28 73.3767 59.9133 73.25 58.6L72.36 58.53C72.3133 58.2567 72.29 57.9867 72.29 57.72C72.29 57.46 72.2967 57.28 72.31 57.18C73.13 57.1667 74.1233 57.0967 75.29 56.97L75.41 57.09C75.2633 58.03 75.19 59.7167 75.19 62.15V62.92C75.19 64.2333 75.2633 65.5133 75.41 66.76L76.3 66.81C76.3267 67.1633 76.34 67.4233 76.34 67.59C76.34 67.7567 76.3167 67.96 76.27 68.2C75.65 68.2333 74.78 68.3133 73.66 68.44C73.5267 68.1533 73.43 67.7533 73.37 67.24C72.17 68.2333 71.0667 68.73 70.06 68.73C69.0467 68.73 68.33 68.45 67.91 67.89C67.4833 67.33 67.27 66.4567 67.27 65.27ZM85.66 61.86C85.66 59.5733 84.98 58.43 83.62 58.43C82.64 58.43 81.71 58.95 80.83 59.99V66.45C81.57 66.8167 82.3467 67 83.16 67C84.8267 67 85.66 65.2867 85.66 61.86ZM80.83 58.53C81.95 57.4433 83.08 56.9 84.22 56.9C85.3533 56.9 86.2167 57.3633 86.81 58.29C87.4033 59.2167 87.7 60.5133 87.7 62.18C87.7 64.4333 87.31 66.0867 86.53 67.14C85.7567 68.2 84.5367 68.73 82.87 68.73C81.83 68.73 80.4467 68.52 78.72 68.1C78.9733 66.5333 79.1 63.99 79.1 60.47C79.1 56.95 79.06 54.67 78.98 53.63L78.02 53.56C77.9733 53.3667 77.95 53.12 77.95 52.82C77.95 52.5133 77.96 52.3133 77.98 52.22C79.4 52.1533 80.44 52.08 81.1 52L81.19 52.12C80.97 54.04 80.85 56.1767 80.83 58.53ZM97.2 61.86C97.2 59.5733 96.52 58.43 95.16 58.43C94.1867 58.43 93.26 58.95 92.38 59.99V66.45C93.1133 66.8167 93.8867 67 94.7 67C96.3667 67 97.2 65.2867 97.2 61.86ZM92.38 58.53C93.5 57.4433 94.6267 56.9 95.76 56.9C96.8933 56.9 97.7567 57.3633 98.35 58.29C98.9433 59.2167 99.24 60.5133 99.24 62.18C99.24 64.4333 98.8533 66.0867 98.08 67.14C97.3 68.2 96.08 68.73 94.42 68.73C93.38 68.73 91.9933 68.52 90.26 68.1C90.52 66.5333 90.65 63.99 90.65 60.47C90.65 56.95 90.61 54.67 90.53 53.63L89.57 53.56C89.5233 53.3667 89.5 53.12 89.5 52.82C89.5 52.5133 89.5067 52.3133 89.52 52.22C90.9467 52.1533 91.9867 52.08 92.64 52L92.74 52.12C92.5133 54.04 92.3933 56.1767 92.38 58.53ZM102.67 62.8V59.51C102.67 56.63 102.63 54.67 102.55 53.63L101.59 53.56C101.543 53.3533 101.52 53.11 101.52 52.83C101.52 52.55 101.527 52.3467 101.54 52.22C103 52.14 104.04 52.0667 104.66 52L104.76 52.12C104.533 54.0267 104.42 56.0733 104.42 58.26V62.22C104.42 64.1933 104.493 65.78 104.64 66.98L105.53 67.05C105.563 67.3033 105.58 67.5233 105.58 67.71C105.58 67.89 105.553 68.1167 105.5 68.39C104.94 68.3767 104.293 68.37 103.56 68.37C102.827 68.37 102.187 68.3767 101.64 68.39C101.593 68.15 101.57 67.94 101.57 67.76C101.57 67.5733 101.587 67.3367 101.62 67.05L102.46 66.98C102.6 65.4733 102.67 64.08 102.67 62.8ZM113.83 58.58L112.82 58.5C112.793 58.34 112.78 58.13 112.78 57.87C112.78 57.6033 112.803 57.3667 112.85 57.16C113.33 57.1733 113.997 57.18 114.85 57.18C115.71 57.18 116.37 57.1733 116.83 57.16C116.877 57.3667 116.9 57.59 116.9 57.83C116.9 58.07 116.887 58.2933 116.86 58.5L116.14 58.58C115.707 59.7467 115.15 61.3533 114.47 63.4C113.79 65.4467 113.277 66.95 112.93 67.91C112.59 68.87 112.27 69.6467 111.97 70.24C111.677 70.8333 111.353 71.3933 111 71.92C110.327 72.9133 109.53 73.41 108.61 73.41C107.69 73.41 106.847 73.1533 106.08 72.64C106.147 71.7133 106.41 71.05 106.87 70.65C107.35 71.3033 107.933 71.63 108.62 71.63C109.36 71.63 110.177 70.59 111.07 68.51C110.257 65.65 108.97 62.34 107.21 58.58L106.42 58.5C106.387 58.3133 106.37 58.0933 106.37 57.84C106.37 57.5933 106.393 57.3667 106.44 57.16C106.907 57.1733 107.6 57.18 108.52 57.18C109.44 57.18 110.14 57.1733 110.62 57.16C110.667 57.3667 110.69 57.5933 110.69 57.84C110.69 58.0933 110.673 58.3133 110.64 58.5L109.66 58.58C109.96 60.3533 110.743 62.7267 112.01 65.7H112.1C112.9 63.1133 113.477 60.74 113.83 58.58Z" fill="#0B0CAC"/>
</svg>
