<svg width="179" height="69" viewBox="0 0 179 69" fill="none" xmlns="http://www.w3.org/2000/svg">
<g clip-path="url(#clip0)">
<path fill-rule="evenodd" clip-rule="evenodd" d="M38.3897 27.3824C38.1047 28.008 38.1047 27.837 37.5361 28.0649C36.9662 28.2929 36.3393 28.2372 36.1113 27.837C35.9968 27.6057 35.9683 27.3412 36.031 27.0908C36.0936 26.8405 36.2433 26.6206 36.4533 26.4705C36.8522 26.1286 37.5361 26.1856 38.0477 26.3565C38.5606 26.5275 38.3897 27.3824 38.3897 27.3824V27.3824ZM19.9351 26.3565C20.505 26.1856 21.1319 26.1286 21.5308 26.4705C21.9284 26.8125 22.1007 27.438 21.8714 27.837C21.6448 28.2929 21.0179 28.2929 20.448 28.0649C19.8781 27.837 19.8211 28.008 19.5361 27.3824C19.5931 27.3824 19.4235 26.5275 19.9351 26.3565V26.3565ZM47.7879 34.0464C47.275 34.3883 47.617 35.0139 47.9019 36.4374C48.1299 37.8622 47.389 38.3751 46.9344 39.0007C46.4785 39.6276 46.4215 38.774 45.9086 38.774C45.4526 38.7157 45.8516 40.0265 45.7946 40.8814C45.7376 41.7349 45.1107 41.2233 44.6547 41.1663C44.2001 41.1093 44.3711 41.45 44.2001 42.2478C44.0278 43.0457 44.0278 42.5328 43.5162 42.9874C43.0033 43.4447 43.3453 43.8423 43.3453 44.6971C43.2883 45.609 43.2883 45.6647 43.1743 47.2591C43.1173 48.8549 42.4347 49.2538 42.3207 50.1087C42.2068 50.9622 41.5229 51.7031 41.1809 51.2472C40.839 50.7913 40.7833 49.7097 40.668 48.8549C40.497 48.0013 40.1564 50.1657 39.9854 50.9052C39.8131 51.6461 39.1306 51.1332 39.1306 50.7343C39.1306 50.2797 38.7329 51.0762 38.5036 51.5891C38.2757 52.1007 37.8781 51.9867 37.7641 51.4751C37.7071 50.9622 37.1942 51.6461 36.9662 51.8728C36.7382 52.1007 36.4533 52.615 35.9987 52.615C35.5427 52.615 35.7694 53.4115 35.5427 53.9814C35.3704 54.5514 35.1438 54.3234 34.6879 54.1524C34.2319 53.9245 34.4029 54.6083 34.175 55.2922C33.947 56.0318 33.2644 55.8622 32.9795 55.5176C32.6945 55.1769 32.6375 56.9423 32.4095 57.7402C32.1816 58.4811 31.8966 57.6262 31.0987 59.2207C30.3592 60.8164 30.4732 61.1014 30.0172 62.6958C29.7323 63.5507 29.2763 63.8357 28.8774 63.9496C28.4798 63.8357 27.9669 63.5507 27.7376 62.6958C27.283 61.1014 27.397 60.8164 26.6561 59.2207C25.9165 57.6262 25.5746 58.4811 25.3466 57.7402C25.1186 57.0007 25.0616 55.2339 24.7767 55.5189C24.4917 55.8608 23.8091 55.9748 23.5812 55.2909C23.3532 54.5514 23.5242 53.9245 23.0683 54.1511C22.6123 54.3791 22.4414 54.6083 22.2134 53.9814C22.0424 53.4115 22.2704 52.615 21.7588 52.615C21.3029 52.615 21.0166 52.1007 20.7899 51.8728C20.562 51.6461 20.049 50.9622 19.992 51.4751C19.9351 51.9881 19.4805 52.1007 19.2525 51.5891C19.0245 51.0762 18.6256 50.2797 18.6256 50.7343C18.6256 51.1902 17.9987 51.6461 17.7707 50.9066C17.5997 50.1643 17.2578 48.0013 17.0881 48.8549C16.9158 49.7097 16.8602 50.7343 16.5752 51.2472C16.2333 51.7031 15.5494 50.9622 15.4354 50.1074C15.3214 49.2538 14.6388 48.9119 14.5818 47.2591C14.5249 45.666 14.4679 45.5507 14.4095 44.6971C14.3539 43.7853 14.7528 43.3877 14.2399 42.9874C13.727 42.5328 13.727 43.0457 13.556 42.2478C13.385 41.45 13.556 41.108 13.1001 41.1663C12.6441 41.2233 12.0186 41.7362 11.9602 40.8814C11.9046 40.0265 12.3035 38.7157 11.8476 38.774C11.3917 38.831 11.3347 39.6846 10.8217 39.0007C10.3658 38.3751 9.62624 37.8052 9.85421 36.4374C10.0822 35.0139 10.4798 34.3883 9.96819 34.0464C9.45527 33.7044 8.82836 33.3055 9.2273 32.5646C9.62492 31.8251 8.99934 31.1412 10.0252 30.0596C11.0497 28.9768 11.0497 29.2048 10.8787 27.666C10.7078 26.1286 10.3088 26.2425 10.8217 25.3877C11.3347 24.5341 11.1637 24.8761 11.4486 23.9642C11.6766 23.0524 12.4745 22.7687 12.5315 23.7932C12.5315 23.7932 12.7581 25.6156 12.6441 26.7555C12.4745 27.8953 12.4745 27.609 12.9291 28.3499C13.385 29.0908 13.328 28.5779 13.613 30.0596C13.8979 31.5401 14.5249 30.6296 15.2074 31.882C15.8913 33.0775 15.4354 32.9636 16.4042 33.4765C17.3718 33.9894 17.7137 33.3625 18.5116 34.6163C19.3095 35.8675 19.3665 35.0709 19.4791 36.6097C19.5931 37.5202 19.5931 38.0331 19.7071 38.3181C19.8211 38.0331 19.992 37.6912 20.22 37.3506C21.7575 35.0709 22.5553 34.444 22.3844 33.3625C22.2134 32.2227 22.4414 32.053 21.3598 31.7681C20.277 31.4261 20.448 30.7422 19.7071 31.1412C18.9675 31.4831 18.9105 31.5388 18.6256 31.4831C18.6256 31.4831 18.8535 30.8562 18.2836 30.7992C17.7137 30.7422 17.1438 30.3433 17.5427 30.1153C17.8847 29.8873 17.2021 29.0338 16.6322 28.8058C16.0623 28.5779 15.6064 27.609 15.7773 27.0404C15.9496 26.4705 16.1763 26.0146 16.8032 26.5275C17.4288 26.9834 18.1127 26.3565 18.5686 27.3824C19.0245 28.4069 19.4805 28.8058 20.619 28.9768C21.1319 29.0338 21.4738 28.9768 21.7588 28.9768C22.0994 28.9198 22.3287 28.8628 22.6123 28.9768C23.0683 29.2048 23.4672 30.1166 23.6382 29.4897C23.8091 28.8628 23.6952 28.5779 23.4659 28.2929C23.2392 27.951 22.7263 27.837 23.0683 27.1531C23.4102 26.5275 23.3532 26.0146 22.5553 25.218C21.7588 24.3632 20.9039 23.3943 20.163 23.7363C19.4235 24.0782 19.5361 24.7038 18.4546 24.7621C17.4288 24.8191 15.9496 25.2737 15.6634 24.1352C15.6634 24.1352 15.6634 22.3698 16.6309 22.4254C17.5997 22.4838 17.8277 22.9384 18.3406 22.1988C18.8535 21.4579 20.277 19.8065 22.0994 20.4891C23.9231 21.2313 25.4606 23.2803 25.4606 24.7038C25.5176 26.1286 25.7455 27.0404 25.8025 27.666C25.8595 28.2929 26.2585 28.9768 25.3466 30.6282C24.4917 32.2797 24.8337 32.5646 24.8337 33.5905C24.8337 34.615 24.6057 36.0954 24.3207 37.6912C24.0371 39.2856 24.2068 38.6031 25.2326 38.945C26.2585 39.2856 26.6561 38.888 27.397 38.831C27.9099 38.831 28.4228 38.7157 28.7078 38.6587C28.9914 38.7157 29.4473 38.774 30.0172 38.831C30.7581 38.888 31.1571 39.2856 32.1816 38.945C33.2074 38.6031 33.3771 39.2856 33.0934 37.6912C32.8085 36.0968 32.5805 34.6163 32.5805 33.5905C32.5805 32.5646 32.9225 32.2797 32.0676 30.6282C31.2127 28.9768 31.5547 28.2359 31.6117 27.666C31.6687 27.0404 31.9536 26.1286 31.9536 24.7051C32.0106 23.2803 33.4911 21.23 35.3148 20.4904C37.1372 19.7482 38.562 21.4009 39.0736 22.1988C39.5865 22.9384 39.8144 22.4268 40.7833 22.4268C41.7508 22.3698 41.7508 24.1352 41.7508 24.1352C41.4659 25.3307 40.0411 24.8191 38.9596 24.7621C37.9337 24.7051 37.9921 24.0782 37.2498 23.7363C36.5103 23.3943 35.7124 24.3632 34.8589 25.2167C34.004 26.0716 33.947 26.5275 34.3459 27.1544C34.6879 27.78 34.175 27.951 33.9483 28.2942C33.719 28.6349 33.605 28.9198 33.776 29.4897C33.9483 30.1153 34.3459 29.2048 34.8019 28.9768C35.0298 28.8628 35.3148 28.9198 35.6554 28.9768C35.9404 29.0338 36.3393 29.0908 36.7952 28.9768C37.9351 28.8045 38.3897 28.4069 38.8456 27.3824C39.3015 26.3565 39.9854 27.0404 40.611 26.5275C41.2379 26.0716 41.5229 26.4705 41.6369 27.0404C41.8078 27.6103 41.3519 28.5779 40.782 28.8058C40.2121 29.0338 39.5295 29.8304 39.8714 30.1153C40.2121 30.3433 39.6991 30.7422 39.1306 30.7992C38.5606 30.8562 38.7886 31.4831 38.7886 31.4831C38.5036 31.5401 38.4467 31.4831 37.7071 31.1412C36.9649 30.7992 37.1372 31.4831 36.0543 31.7681C34.9728 32.1087 35.2008 32.2797 35.0298 33.3625C34.8575 34.5023 35.6554 35.0722 37.1942 37.3492C37.4221 37.6912 37.5918 37.9761 37.7071 38.3168C37.8211 37.9761 37.8781 37.5215 37.9337 36.6097C38.0477 35.0722 38.106 35.8675 38.9026 34.615C39.7005 33.3625 40.0424 33.9894 41.0099 33.4752C41.9775 32.9636 41.5229 33.0775 42.2068 31.882C42.8893 30.6852 43.5162 31.5401 43.8012 30.0583C44.0862 28.5779 44.0292 29.0908 44.4851 28.3499C44.9397 27.609 44.9397 27.894 44.77 26.7555C44.5977 25.6156 44.8827 23.7932 44.8827 23.7932C44.9397 22.7687 45.7376 23.0524 45.9655 23.9642C46.1935 24.8761 46.0225 24.5911 46.5924 25.3877C47.104 26.2425 46.7634 26.1299 46.5355 27.6673C46.3632 29.2048 46.3075 28.9768 47.389 30.0583C48.4148 31.1412 47.7879 31.8251 48.1869 32.5646C48.9278 33.3055 48.3009 33.7044 47.7893 34.0464H47.7879ZM10.6508 5.51094C11.7893 3.68721 12.1312 2.94632 13.0987 3.97217C14.0663 4.99669 14.1246 5.5666 15.548 7.78927C16.9728 10.0093 18.1683 10.2942 18.0543 11.4341C17.8834 12.6296 18.1113 13.1425 16.6309 13.7681C15.1491 14.338 14.3512 13.996 14.2956 12.7435C14.2386 11.4897 14.9225 11.8887 14.6375 10.6362C14.2956 9.38237 14.1246 7.90192 13.6117 7.5613C13.0987 7.21803 12.0742 7.21803 11.9602 8.35653C11.9602 8.35653 11.5613 10.1803 11.8463 11.3201C12.1312 12.4599 11.7323 14.338 11.2763 13.7681C10.7634 13.1981 10.0808 13.0855 10.1948 10.5209C10.1948 7.95891 9.51093 7.33201 10.6494 5.51094H10.6508ZM42.4917 7.78661C43.9152 5.56528 43.9722 4.99536 44.9397 3.96952C45.9086 2.945 46.2505 3.68589 47.389 5.50828C48.5288 7.33068 47.8449 8.01458 47.9019 10.5209C48.0159 13.0842 47.332 13.1412 46.8204 13.7681C46.3075 14.338 45.9655 12.4573 46.2505 11.3188C46.5355 10.1789 46.1365 8.35653 46.1365 8.35653C46.0225 7.2167 44.9967 7.2167 44.4851 7.55865C43.9722 7.9006 43.8012 9.38105 43.4592 10.6335C43.1173 11.8873 43.8569 11.4884 43.8012 12.7409C43.7442 13.9947 42.9463 14.3366 41.4659 13.7667C39.9854 13.1968 40.2121 12.6282 40.0424 11.4314C39.8144 10.2359 41.0669 9.95096 42.4917 7.78661ZM55.8198 33.4182C54.9079 32.0517 54.6229 31.8807 54.5659 30.6839C54.5089 29.4314 54.6799 28.7475 53.5414 27.4367C52.4016 26.1272 52.1166 25.5017 52.2876 23.7919C52.4599 22.0822 52.2306 19.6342 51.605 18.8363C51.605 18.8363 51.3771 20.3738 51.0921 20.7157C50.8072 21.1146 50.7502 18.6084 50.5792 17.9828C50.3512 17.3559 50.0663 16.501 49.4394 16.159C48.8138 15.7614 48.5858 14.7356 48.5858 14.7356C48.5858 14.7356 51.0351 3.17429 45.1107 0.611002C45.1107 0.611002 43.6872 0.098079 42.5474 2.66137C41.4089 5.22465 37.7071 6.82041 36.7382 8.12989C35.7707 9.43936 35.2578 9.61034 35.1438 9.61034C34.9715 9.61034 31.0987 8.64281 28.9914 8.64281C26.884 8.64281 23.0113 9.61034 22.8416 9.61034C22.6693 9.61034 22.2134 9.43936 21.2459 8.12989C20.2783 6.82041 16.5752 5.22465 15.4354 2.66137C14.2956 0.098079 12.8721 0.611002 12.8721 0.611002C7.00596 3.17429 9.39828 14.7382 9.39828 14.7382C9.39828 14.7382 9.17031 15.7641 8.54341 16.1617C7.91783 16.5606 7.63287 17.3585 7.40358 17.9854C7.17694 18.611 7.11995 21.1173 6.89198 20.7184C6.60702 20.3207 6.37906 18.839 6.37906 18.839C5.75215 19.6368 5.52551 22.0862 5.69649 23.7959C5.86614 25.503 5.58251 26.1869 4.44268 27.4407C3.30285 28.7502 3.47515 29.4341 3.41816 30.6879C3.36117 31.9404 3.07621 32.11 2.16435 33.4208C1.25249 34.786 0 37.2922 0 37.2922C0 37.2922 0.512923 37.5202 0.967528 37.6912C1.42346 37.8622 1.76541 38.2041 2.22134 38.3751C2.67727 38.5461 2.73426 38.831 3.1332 39.0577C3.53082 39.3426 3.1332 39.5706 2.90524 40.0835C2.67727 40.5964 3.24718 40.8814 3.92976 41.2233C4.61365 41.564 4.72763 41.8489 5.06958 42.5885C5.41153 43.2724 5.4672 44.0702 6.20941 44.2982C6.94897 44.5832 6.72101 45.0391 6.83499 45.78C6.94897 46.4626 7.34791 46.6905 8.25845 46.8615C9.11332 47.0325 8.71438 47.3744 8.77137 48.1723C8.82836 48.9675 9.62624 49.1398 10.8217 49.0828C12.0186 49.0258 11.3347 49.4805 13.1571 51.1902C14.9795 52.8999 17.7707 55.1769 20.505 58.6521C23.1822 62.1259 27.226 68.9039 29.0484 68.9039C30.8721 68.9039 34.8589 62.1259 37.5931 58.6521C40.2704 55.1769 43.1173 52.9556 44.9397 51.1902C46.7634 49.4805 46.0795 49.0258 47.275 49.0828C48.4718 49.1398 49.2697 48.9689 49.3267 48.1723C49.3837 47.3744 48.9278 47.0325 49.8383 46.8615C50.6932 46.6892 51.1491 46.4639 51.2631 45.78C51.3771 45.0961 51.1491 44.5832 51.8887 44.2982C52.6309 44.0133 52.6865 43.2724 53.0285 42.5885C53.3704 41.9059 53.4844 41.564 54.1683 41.2233C54.8509 40.8814 55.4208 40.5964 55.1928 40.0835C54.9649 39.5706 54.6229 39.3426 54.9649 39.0577C55.3625 38.774 55.4778 38.4877 55.8767 38.3751C56.3314 38.2028 56.6733 37.8052 57.1292 37.6912C57.5852 37.5202 58.0968 37.2922 58.0968 37.2922C58.0968 37.2922 56.7316 34.729 55.8198 33.4195V33.4182ZM38.3327 40.1975C38.22 40.7091 37.9907 41.1093 37.9907 41.507C37.9907 42.4188 37.4208 42.4758 36.5103 42.0199C35.5984 41.564 36.1683 42.7608 35.9974 43.8993C35.8277 45.0391 34.4029 46.1206 34.004 46.8615C33.5494 47.6024 32.8642 46.9185 32.8085 46.1206C32.7502 45.3241 33.4341 43.7853 32.5235 42.1909C31.7826 40.8244 29.6753 41.336 29.0484 41.507C28.4228 41.336 26.3141 40.8814 25.5746 42.1909C24.6627 43.7853 25.3466 45.3241 25.2896 46.1206C25.2326 46.9185 24.493 47.6024 24.0941 46.8628C23.6382 46.1206 22.2704 45.0391 22.1007 43.8993C21.9284 42.7594 22.4983 41.6209 21.5878 42.0199C20.6759 42.4758 20.106 42.3618 20.106 41.507C20.106 41.1093 19.8794 40.7091 19.7641 40.1975C19.4235 40.1405 19.1385 40.1405 19.0245 40.2545C18.7966 40.5394 18.5116 41.6779 18.7966 42.9874C19.1385 44.2995 19.5374 44.5262 20.391 45.609C21.2459 46.6905 21.9284 46.3486 22.4983 47.8873C23.0683 49.4818 22.8403 49.8224 23.8661 50.2227C24.8907 50.6203 25.006 50.7343 26.0292 50.6203C27.055 50.5063 27.055 50.6773 27.7959 50.7926C28.1378 50.8482 28.3658 50.7926 28.4798 50.7926C28.6508 50.7343 28.7647 50.7343 28.8774 50.7926C28.9357 50.7926 28.9927 50.8482 29.0497 50.9052C29.1067 50.8482 29.1624 50.7912 29.2194 50.7912C29.3333 50.7343 29.4473 50.7343 29.617 50.7912C29.7893 50.7912 29.9616 50.8482 30.3022 50.7912C31.0418 50.7343 31.0418 50.5633 32.0676 50.6203C33.0934 50.7343 33.2074 50.6203 34.2319 50.2227C35.2578 49.8224 35.0285 49.4805 35.5984 47.8873C36.1683 46.2916 36.9105 46.6905 37.7058 45.6077C38.5606 44.5262 38.9596 44.2982 39.3015 42.9874C39.6435 41.6779 39.3015 40.5394 39.0736 40.2545C38.9596 40.0835 38.6759 40.1405 38.3327 40.1975" fill="#22223B"/>
<path d="M92.6506 26.1598V31.6207H83.3141C79.7909 31.6207 77.2439 30.9381 75.6731 29.5729C74.1024 28.2076 73.317 25.9836 73.317 22.9008V0.26424H79.4386V22.9008C79.4386 24.1339 79.7175 24.9854 80.2753 25.4551C80.8332 25.9249 81.8461 26.1598 83.3141 26.1598H92.6506ZM120.528 14.4892V16.8673C120.528 22.1228 119.537 25.9396 117.555 28.3177C115.573 30.6959 112.395 31.885 108.021 31.885C103.646 31.885 100.482 30.6959 98.5299 28.3177C96.5775 25.9396 95.6012 22.0787 95.6012 16.7352V14.4451C95.6012 9.57136 96.5921 5.9454 98.5739 3.56724C100.556 1.18908 103.697 0 107.998 0C112.3 0 115.463 1.20376 117.489 3.61128C119.515 6.0188 120.528 9.64476 120.528 14.4892ZM114.406 16.7352V15.1057C114.406 12.2872 114.054 10.0411 113.349 8.3676C112.527 6.42984 110.766 5.46096 108.065 5.46096C105.334 5.46096 103.558 6.42984 102.736 8.3676C102.06 9.95304 101.723 12.1991 101.723 15.1057V16.7352C101.723 20.5226 102.251 23.077 103.308 24.3982C103.719 24.956 104.328 25.4331 105.136 25.8295C105.943 26.2258 106.912 26.424 108.043 26.424C109.173 26.424 110.134 26.2332 110.927 25.8515C111.72 25.4698 112.336 25 112.777 24.4422C113.217 23.8844 113.555 23.1504 113.79 22.2402C114.201 20.8016 114.406 18.9666 114.406 16.7352ZM139.641 2.90664L149.682 31.6207H143.297L141.535 26.2038H131.009L129.292 31.6207H122.906L132.947 2.90664C133.388 1.9084 133.879 1.21844 134.422 0.83676C134.966 0.45508 135.634 0.26424 136.426 0.26424C137.219 0.26424 137.858 0.4404 138.342 0.79272C138.826 1.14504 139.26 1.84968 139.641 2.90664ZM132.551 21.0511H140.126L136.426 8.63184L132.551 21.0511ZM172.319 0.26424H178.44V28.4498C178.44 29.4187 178.147 30.2481 177.56 30.9381C176.972 31.6281 176.283 31.973 175.49 31.973C173.464 31.973 171.805 30.7986 170.513 28.4498L159.679 11.4944V31.6207H153.558V0.26424H159.459L172.319 20.7869V0.26424Z" fill="#C9ADA7"/>
<path d="M102.517 40.2H108.317L100.677 68.68H96.037L90.797 51.4L85.557 68.68H80.917L73.317 40.2H79.117L83.517 58.16L87.877 43.32C88.357 41.1067 89.3703 40 90.917 40C91.6903 40 92.277 40.2867 92.677 40.86C93.077 41.4333 93.437 42.2533 93.757 43.32L98.077 58.16L102.517 40.2ZM132.757 53.12V55.28C132.757 60.0533 131.857 63.52 130.057 65.68C128.257 67.84 125.37 68.92 121.397 68.92C117.424 68.92 114.55 67.84 112.777 65.68C111.004 63.52 110.117 60.0133 110.117 55.16V53.08C110.117 48.6533 111.017 45.36 112.817 43.2C114.617 41.04 117.47 39.96 121.377 39.96C125.284 39.96 128.157 41.0533 129.997 43.24C131.837 45.4267 132.757 48.72 132.757 53.12ZM127.197 55.16V53.68C127.197 51.12 126.877 49.08 126.237 47.56C125.49 45.8 123.89 44.92 121.437 44.92C118.957 44.92 117.344 45.8 116.597 47.56C115.984 49 115.677 51.04 115.677 53.68V55.16C115.677 58.6 116.157 60.92 117.117 62.12C117.49 62.6267 118.044 63.06 118.777 63.42C119.51 63.78 120.39 63.96 121.417 63.96C122.444 63.96 123.317 63.7867 124.037 63.44C124.757 63.0933 125.317 62.6667 125.717 62.16C126.117 61.6533 126.424 60.9867 126.637 60.16C127.01 58.8533 127.197 57.1867 127.197 55.16ZM155.197 63.72V68.68H146.717C143.517 68.68 141.204 68.06 139.777 66.82C138.35 65.58 137.637 63.56 137.637 60.76V40.2H143.197V60.76C143.197 61.88 143.45 62.6533 143.957 63.08C144.464 63.5067 145.384 63.72 146.717 63.72H155.197ZM178.397 40.2V45.16H168.357C167.184 45.16 166.364 45.3867 165.897 45.84C165.43 46.2933 165.197 47.08 165.197 48.2V52.16H175.637L175.237 57.12H165.197V68.68H159.637V46C159.637 43.8933 160.097 42.4 161.017 41.52C161.937 40.64 163.517 40.2 165.757 40.2H178.397Z" fill="#C9ADA7"/>
</g>
<defs>
<clipPath id="clip0">
<rect width="178.397" height="68.9198" fill="white"/>
</clipPath>
</defs>
</svg>
