<svg width="147" height="36" viewBox="0 0 147 36" fill="none" xmlns="http://www.w3.org/2000/svg">
<g clip-path="url(#clip0_4:47)">
<g clip-path="url(#clip1_4:47)">
<path d="M145.808 20.0237L145.038 19.6188C145.122 19.0915 145.166 18.5508 145.166 18C145.166 17.2846 145.092 16.5864 144.952 15.9127L145.702 15.4731C146.877 14.7843 146.725 14.2647 145.364 14.3189L144.496 14.3537C144.048 13.1794 143.389 12.1092 142.567 11.1888L142.997 10.4309C143.67 9.24698 143.279 8.87354 142.127 9.60098L141.391 10.0663C140.435 9.28826 139.336 8.6801 138.14 8.28626L138.134 7.41746C138.125 6.0557 137.599 5.92778 136.965 7.1333L136.561 7.90346C136.033 7.81946 135.493 7.7753 134.942 7.7753C134.226 7.7753 133.528 7.84922 132.854 7.9889L132.414 7.23914C131.726 6.06434 131.206 6.2165 131.26 7.5773L131.295 8.44562C130.121 8.89394 129.051 9.55226 128.13 10.3752L127.372 9.94442C126.188 9.27146 125.815 9.6629 126.542 10.8142L127.008 11.5507C126.23 12.5069 125.621 13.6059 125.228 14.8025L124.359 14.8083C122.997 14.8171 122.869 15.3432 124.075 15.9763L124.845 16.3812C124.761 16.9085 124.717 17.4492 124.717 18.0003C124.717 18.7155 124.791 19.4139 124.93 20.0873L124.181 20.527C123.006 21.2158 123.158 21.7354 124.519 21.6811L125.387 21.6463C125.835 22.8207 126.494 23.8908 127.316 24.8112L126.886 25.5691C126.213 26.7531 126.604 27.1267 127.755 26.3991L128.492 25.9339C129.448 26.7118 130.547 27.3202 131.744 27.714L131.749 28.5828C131.758 29.9446 132.284 30.0725 132.918 28.867L133.322 28.0968C133.85 28.1806 134.39 28.2247 134.942 28.2247C135.657 28.2247 136.355 28.1508 137.029 28.0111L137.468 28.7609C138.157 29.9357 138.676 29.7835 138.623 28.423L138.588 27.5547C139.762 27.1063 140.832 26.448 141.753 25.6253L142.511 26.0561C143.694 26.7288 144.068 26.3374 143.341 25.1861L142.875 24.4498C143.653 23.4941 144.262 22.3949 144.656 21.198L145.524 21.1925C146.886 21.1829 147.014 20.6566 145.808 20.0237Z" fill="black"/>
</g>
<path d="M2.81 26.349H0.1C0.0333333 26.349 0 26.309 0 26.229L0.05 9.749C0.05 9.68233 0.08 9.649 0.14 9.649H3.07C3.13667 9.649 3.19333 9.68233 3.24 9.749L5.42 12.909L7.61 9.749C7.65667 9.68233 7.71333 9.649 7.78 9.649H10.73C10.79 9.649 10.82 9.68233 10.82 9.749L10.87 26.229C10.87 26.309 10.84 26.349 10.78 26.349H8.06C8 26.349 7.97 26.309 7.97 26.229L7.94 13.989L5.42 17.639L2.93 13.989L2.9 26.229C2.9 26.309 2.87 26.349 2.81 26.349ZM15.72 26.349H13.01C12.93 26.349 12.89 26.309 12.89 26.229L12.91 9.749C12.91 9.68233 12.9433 9.649 13.01 9.649H15.7C15.76 9.649 15.79 9.68233 15.79 9.749L15.82 26.229C15.82 26.309 15.7867 26.349 15.72 26.349ZM20.54 26.349H18.14C18.0133 26.349 17.95 26.2957 17.95 26.189L17.93 9.839C17.93 9.71233 17.9933 9.649 18.12 9.649H20.28L24.34 19.109L24.22 9.839C24.22 9.71233 24.29 9.649 24.43 9.649H26.81C26.9033 9.649 26.95 9.71233 26.95 9.839L26.98 26.209C26.98 26.3023 26.94 26.349 26.86 26.349H24.74L20.59 17.519L20.76 26.159C20.76 26.2857 20.6867 26.349 20.54 26.349ZM36.91 26.349H29.16C29.0933 26.349 29.06 26.309 29.06 26.229L29.09 9.749C29.09 9.68233 29.12 9.649 29.18 9.649H36.89C36.95 9.649 36.98 9.689 36.98 9.769V12.459C36.98 12.519 36.95 12.549 36.89 12.549H31.97V16.299H36.89C36.95 16.299 36.98 16.329 36.98 16.389L37.01 19.109C37.01 19.169 36.9767 19.199 36.91 19.199H31.97V23.399H36.91C36.9767 23.399 37.01 23.439 37.01 23.519V26.259C37.01 26.319 36.9767 26.349 36.91 26.349ZM43.08 26.589C42.2133 26.589 41.4267 26.369 40.72 25.929C40.0067 25.489 39.4367 24.9057 39.01 24.179C38.59 23.4523 38.38 22.649 38.38 21.769V20.669C38.38 20.589 38.42 20.549 38.5 20.549H41.18C41.2467 20.549 41.28 20.589 41.28 20.669V21.769C41.28 22.2957 41.4567 22.749 41.81 23.129C42.1633 23.5023 42.5867 23.689 43.08 23.689C43.5733 23.689 43.9967 23.4957 44.35 23.109C44.7033 22.729 44.88 22.2823 44.88 21.769C44.88 21.1757 44.4967 20.6623 43.73 20.229C43.47 20.089 43.07 19.8657 42.53 19.559C41.9833 19.259 41.47 18.9723 40.99 18.699C40.11 18.1857 39.46 17.5423 39.04 16.769C38.6133 15.989 38.4 15.1123 38.4 14.139C38.4 13.239 38.6167 12.4357 39.05 11.729C39.4833 11.0157 40.0533 10.449 40.76 10.029C41.4733 9.61566 42.2467 9.409 43.08 9.409C43.9267 9.409 44.7067 9.62233 45.42 10.049C46.1333 10.469 46.7 11.0357 47.12 11.749C47.5467 12.4623 47.76 13.259 47.76 14.139V16.109C47.76 16.169 47.7267 16.199 47.66 16.199H44.98C44.9133 16.199 44.88 16.169 44.88 16.109L44.86 14.139C44.86 13.579 44.6833 13.1223 44.33 12.769C43.9767 12.4157 43.56 12.239 43.08 12.239C42.5867 12.239 42.1633 12.429 41.81 12.809C41.4567 13.1823 41.28 13.6257 41.28 14.139C41.28 14.6657 41.3933 15.1057 41.62 15.459C41.84 15.8123 42.2467 16.149 42.84 16.469C42.92 16.5157 43.0767 16.599 43.31 16.719C43.5433 16.839 43.7933 16.9757 44.06 17.129C44.3333 17.2757 44.58 17.4057 44.8 17.519C45.0133 17.6323 45.1433 17.7057 45.19 17.739C45.99 18.1857 46.6233 18.7323 47.09 19.379C47.55 20.0257 47.78 20.8223 47.78 21.769C47.78 22.6823 47.57 23.5023 47.15 24.229C46.7233 24.9557 46.1533 25.5323 45.44 25.959C44.7333 26.379 43.9467 26.589 43.08 26.589ZM54.1 26.349H51.19C51.13 26.349 51.09 26.309 51.07 26.229L48.24 9.749C48.2267 9.68233 48.25 9.649 48.31 9.649H51C51.0667 9.649 51.1067 9.68233 51.12 9.749L52.66 20.589L54.24 9.749C54.2533 9.68233 54.3 9.649 54.38 9.649H56.54C56.6067 9.649 56.6467 9.68233 56.66 9.749L58.22 20.589L59.78 9.749C59.8 9.68233 59.84 9.649 59.9 9.649H62.57C62.65 9.649 62.68 9.68233 62.66 9.749L59.81 26.229C59.79 26.2623 59.7667 26.2923 59.74 26.319C59.7067 26.339 59.69 26.349 59.69 26.349H56.78C56.7333 26.349 56.6933 26.309 56.66 26.229L55.44 17.619L54.22 26.229C54.2 26.309 54.16 26.349 54.1 26.349ZM71.93 26.349H64.18C64.1133 26.349 64.08 26.309 64.08 26.229L64.1 9.749C64.1 9.68233 64.1333 9.649 64.2 9.649H71.9C71.9667 9.649 72 9.689 72 9.769V12.459C72 12.519 71.9667 12.549 71.9 12.549H66.98V16.299H71.9C71.9667 16.299 72 16.329 72 16.389L72.02 19.109C72.02 19.169 71.99 19.199 71.93 19.199H66.98V23.399H71.93C71.99 23.399 72.02 23.439 72.02 23.519V26.259C72.02 26.319 71.99 26.349 71.93 26.349ZM82.01 26.349H74.26C74.1933 26.349 74.16 26.309 74.16 26.229L74.18 9.749C74.18 9.68233 74.2133 9.649 74.28 9.649H81.98C82.0467 9.649 82.08 9.689 82.08 9.769V12.459C82.08 12.519 82.0467 12.549 81.98 12.549H77.06V16.299H81.98C82.0467 16.299 82.08 16.329 82.08 16.389L82.1 19.109C82.1 19.169 82.07 19.199 82.01 19.199H77.06V23.399H82.01C82.07 23.399 82.1 23.439 82.1 23.519V26.259C82.1 26.319 82.07 26.349 82.01 26.349ZM87.05 26.349H84.36C84.28 26.349 84.24 26.309 84.24 26.229L84.29 9.749C84.29 9.68233 84.32 9.649 84.38 9.649H88.99C90.4633 9.649 91.6267 10.0957 92.48 10.989C93.34 11.889 93.77 13.1057 93.77 14.639C93.77 15.779 93.5467 16.7623 93.1 17.589C92.6467 18.4223 92.06 19.0623 91.34 19.509C90.62 19.9623 89.8367 20.189 88.99 20.189H87.17V26.229C87.17 26.309 87.13 26.349 87.05 26.349ZM87.17 12.529V17.279H88.99C89.5033 17.279 89.9467 17.0357 90.32 16.549C90.7 16.0623 90.89 15.4257 90.89 14.639C90.89 14.019 90.72 13.509 90.38 13.109C90.0467 12.709 89.5833 12.509 88.99 12.509L87.17 12.529ZM103.25 26.349H95.5C95.4333 26.349 95.4 26.309 95.4 26.229L95.42 9.749C95.42 9.68233 95.4533 9.649 95.52 9.649H103.22C103.287 9.649 103.32 9.689 103.32 9.769V12.459C103.32 12.519 103.287 12.549 103.22 12.549H98.3V16.299H103.22C103.287 16.299 103.32 16.329 103.32 16.389L103.34 19.109C103.34 19.169 103.31 19.199 103.25 19.199H98.3V23.399H103.25C103.31 23.399 103.34 23.439 103.34 23.519V26.259C103.34 26.319 103.31 26.349 103.25 26.349ZM108.29 26.349H105.58C105.513 26.349 105.48 26.309 105.48 26.229L105.53 9.749C105.53 9.68233 105.56 9.649 105.62 9.649H110.47C111.337 9.649 112.133 9.86233 112.86 10.289C113.587 10.709 114.167 11.2757 114.6 11.989C115.033 12.7023 115.25 13.5057 115.25 14.399C115.25 14.9923 115.16 15.5257 114.98 15.999C114.807 16.4723 114.6 16.8723 114.36 17.199C114.12 17.5257 113.903 17.769 113.71 17.929C114.577 18.889 115.01 20.0157 115.01 21.309L115.03 26.229C115.03 26.309 114.99 26.349 114.91 26.349H112.2C112.133 26.349 112.1 26.3257 112.1 26.279V21.309C112.1 20.7357 111.897 20.2357 111.49 19.809C111.083 19.389 110.583 19.179 109.99 19.179H108.41L108.38 26.229C108.38 26.309 108.35 26.349 108.29 26.349ZM108.41 12.529V16.299H110.47C110.97 16.299 111.41 16.1157 111.79 15.749C112.177 15.3757 112.37 14.9257 112.37 14.399C112.37 13.8857 112.18 13.4457 111.8 13.079C111.427 12.7123 110.983 12.529 110.47 12.529H108.41Z" fill="black"/>
</g>
<defs>
<clipPath id="clip0_4:47">
<rect width="146.672" height="36" fill="white"/>
</clipPath>
<clipPath id="clip1_4:47">
<rect width="23.424" height="24" fill="white" transform="translate(123.248 6)"/>
</clipPath>
</defs>
</svg>
